<svg width="76" height="60" fill="none" xmlns="http://www.w3.org/2000/svg"><path fill-rule="evenodd" clip-rule="evenodd" d="M41.057 48.65l-.343-.35-1.428 1.4.344.35a20.068 20.068 0 0020.654 4.991l3.984-1.324 7.87 3.382 1.778.764-.406-1.892-1.976-9.209 1.71-4.435a18.674 18.674 0 00.917-10.223l-.188-.984a17.944 17.944 0 00-9.739-12.749l-.838-.41a21.445 21.445 0 00-16.284-1.054l-.432.145.64 1.895.432-.145a19.444 19.444 0 0114.765.956l.838.41a15.943 15.943 0 018.654 11.328l.188.984c.585 3.059.301 6.22-.819 9.127l-1.817 4.714-.107.278.063.291 1.632 7.607-6.44-2.767-.35-.15-.361.12-4.345 1.443a18.067 18.067 0 01-18.596-4.493zM24.954 34.805v.69h2.314v-.69c.017-.937.124-1.725.32-2.365.196-.647.52-1.223.972-1.725.451-.503 1.06-1.01 1.828-1.522.81-.528 1.483-1.09 2.02-1.687a6.184 6.184 0 001.227-1.956c.273-.708.409-1.492.409-2.352 0-1.305-.302-2.46-.908-3.465a6.42 6.42 0 00-2.518-2.39c-1.074-.589-2.318-.883-3.733-.883-1.355 0-2.582.286-3.682.857a6.66 6.66 0 00-2.633 2.39c-.657 1.032-1.006 2.25-1.049 3.657h2.416c.043-1.057.294-1.944.755-2.66a4.545 4.545 0 011.802-1.636 5.223 5.223 0 012.39-.562c.896 0 1.71.192 2.443.575a4.309 4.309 0 011.738 1.598c.435.69.652 1.496.652 2.416 0 .648-.115 1.249-.345 1.803a4.85 4.85 0 01-.984 1.508 8.605 8.605 0 01-1.585 1.292c-.844.536-1.552 1.099-2.123 1.687-.562.58-.988 1.291-1.278 2.135-.29.844-.439 1.939-.448 3.285zm-.076 7.85c.366.358.801.537 1.304.537.34 0 .648-.081.92-.243.282-.17.503-.396.665-.678.17-.28.256-.588.256-.92 0-.511-.183-.946-.55-1.304a1.76 1.76 0 00-1.291-.537c-.503 0-.938.179-1.304.537a1.776 1.776 0 00-.537 1.304c0 .503.179.937.537 1.304z" fill="#A1273C"/><path fill-rule="evenodd" clip-rule="evenodd" d="M29.207 4.74a25.11 25.11 0 00-13.163 2.096l-.31.141A23.603 23.603 0 001.962 26.721l-.03.4a24.845 24.845 0 001.942 11.623l2.057 4.8-3.38 10.14-.612 1.836 1.852-.563 11.215-3.414 5.714 1.667a22.866 22.866 0 0012.568.068l1.194-.334a21.963 21.963 0 0014.548-13.19l.007-.019c.379.319.818.478 1.318.478.379 0 .72-.09 1.023-.27.312-.19.559-.44.739-.753.189-.312.284-.653.284-1.022 0-.569-.2-1.051-.597-1.45a1.972 1.972 0 00-1.518-.595c.515-1.88.825-3.815.922-5.768l.053-1.054a22.76 22.76 0 00-8.938-19.24l-.46-.352a24.856 24.856 0 00-12.32-4.933l-.336-.037zM16.871 8.656a23.11 23.11 0 0112.115-1.93l.336.037A22.857 22.857 0 0140.65 11.3l.46.351a20.76 20.76 0 018.154 17.55l-.053 1.054a24.952 24.952 0 01-1.665 7.797l-.38.977a19.964 19.964 0 01-13.224 11.989l-1.193.334a20.867 20.867 0 01-11.469-.062l-6-1.75-.286-.083-.285.086L5.06 52.48l2.888-8.664.12-.36-.15-.35-2.207-5.15a22.845 22.845 0 01-1.785-10.687l.03-.4A21.603 21.603 0 0116.56 8.797l.31-.141zm38.777 30.96c.408.397.89.596 1.45.596.378 0 .719-.09 1.022-.27.313-.19.559-.44.739-.753.189-.312.284-.653.284-1.022 0-.569-.2-1.051-.597-1.45a1.972 1.972 0 00-1.449-.596c-.558 0-1.041.199-1.449.597-.397.398-.596.88-.596 1.449 0 .558.199 1.041.596 1.449zm6.743 0c.407.397.89.596 1.449.596.378 0 .72-.09 1.022-.27.313-.19.559-.44.739-.753.19-.312.284-.653.284-1.022 0-.569-.199-1.051-.597-1.45a1.972 1.972 0 00-1.448-.596c-.56 0-1.042.199-1.45.597-.397.398-.596.88-.596 1.449 0 .558.199 1.041.597 1.449z" fill="#000"/></svg>