<svg width="65" height="60" fill="none" xmlns="http://www.w3.org/2000/svg"><path fill-rule="evenodd" clip-rule="evenodd" d="M36.56 2C23.13 2 12.038 12.013 10.344 24.98l-1.983-.259C10.184 10.771 22.113 0 36.56 0 52.267 0 65 12.733 65 28.44c0 12.975-8.688 23.918-20.562 27.335l-.553-1.922C54.925 50.675 63 40.5 63 28.44 63 13.838 51.162 2 36.56 2zm-1.32 27.465V9.425a1 1 0 112 0v19.716l8.457 8.526a1 1 0 11-1.42 1.408l-8.722-8.794a.995.995 0 01-.277-.546 1 1 0 01-.037-.27z" fill="#000"/><path fill-rule="evenodd" clip-rule="evenodd" d="M9.4 34.46c5.19 0 9.399-1.471 9.399-3.286s-4.209-3.287-9.4-3.287C4.21 27.887 0 29.36 0 31.174s4.208 3.287 9.4 3.287zm10.67 10.483c5.192 0 9.4-1.471 9.4-3.286s-4.208-3.287-9.4-3.287c-5.19 0-9.398 1.472-9.398 3.287s4.208 3.286 9.399 3.286zm-2.122-10.309c.317-.26.85-.227.85.184 0 .473-.245.925-.69 1.338 0 0-2.851.325-4.14.704-1.594.47-4.569 1.51-4.569 1.51C4.21 38.37 0 36.78 0 34.818c0-.41.534-.444.85-.184 1.485 1.224 4.754 2.074 8.55 2.074 3.794 0 7.064-.85 8.548-2.074zM29.47 45.407c0-.41-.534-.443-.85-.183-1.485 1.224-4.754 2.074-8.55 2.074-3.794 0-7.063-.85-8.548-2.074-.316-.26-.85-.227-.85.184 0 1.962 4.208 3.552 9.399 3.552 0 0 2.975-1.04 4.568-1.51 1.29-.38 4.14-.704 4.14-.704.446-.413.691-.865.691-1.339zm10.224 9.889c.17.266.259.544.259.83 0 1.963-4.208 3.553-9.4 3.553-5.19 0-9.399-1.59-9.399-3.552 0-.287.09-.565.259-.831.99 1.56 4.707 2.721 9.14 2.721 4.435 0 8.152-1.16 9.141-2.721zM8.29 42.496C3.1 42.496 0 41.163 0 39.2c0-.286.09-.564.259-.831.99 1.561 3.597 2.688 8.031 2.688v1.438zM0 43.473c0 1.963 3.1 3.295 8.29 3.295V45.33c-4.434 0-7.042-1.126-8.031-2.687a1.54 1.54 0 00-.259.83zm8.29 7.679C3.1 51.152 0 49.819 0 47.857c0-.286.09-.564.259-.83.99 1.56 3.597 2.687 8.031 2.687v1.438zM0 52.13c0 1.962 3.1 3.294 8.29 3.294v-1.437c-4.434 0-7.042-1.127-8.031-2.688a1.54 1.54 0 00-.259.83zm18.962 5.357c-5.191 0-8.29-1.332-8.29-3.294 0-.286.09-.565.258-.831.99 1.56 3.598 2.687 8.032 2.687v1.438zm-8.29-7.567c0 1.962 3.099 3.295 8.29 3.295v-1.438c-4.434 0-7.042-1.127-8.032-2.688a1.54 1.54 0 00-.258.83zm19.882 5.742c5.19 0 9.399-1.471 9.399-3.286 0-1.816-4.208-3.287-9.4-3.287-5.19 0-9.399 1.471-9.399 3.287 0 1.815 4.209 3.286 9.4 3.286z" fill="#a1273c"/></svg>