<svg width="69" height="61" fill="none" xmlns="http://www.w3.org/2000/svg"><path fill-rule="evenodd" clip-rule="evenodd" d="M13.435 33.629l3.234 10.349H31.19l3.235-10.349 3.233 10.349H52.18l3.234-10.349 3.234 10.349h9.523l-7.594 6.328 3.231 9.695-8.394-5.811L47.02 60l3.222-9.667-5.558-4.275-5.097 4.248L42.819 60l-8.395-5.811L26.03 60l3.223-9.667-5.558-4.275-5.098 4.248L21.83 60l-8.394-5.811L5.04 60l3.222-9.667L0 43.978h10.201l3.234-10.349zm0 6.705l-1.764 5.644h-5.79l4.73 3.638-1.776 5.326 4.6-3.185 4.6 3.185-1.767-5.298 4.4-3.666h-5.47l-1.763-5.644zm20.99 0l-1.764 5.644H26.87l4.73 3.638-1.775 5.326 4.6-3.185 4.599 3.185-1.766-5.298 4.4-3.666h-5.47l-1.764-5.644zm20.989 0l1.764 5.644h5.469l-4.4 3.666 1.766 5.298-4.599-3.185-4.6 3.185 1.776-5.326-4.73-3.638h5.79l1.764-5.644z" fill="#A1273C"/><path d="M11.671 45.978l1.764-5.644 1.763 5.644h5.47l-4.4 3.666 1.766 5.298-4.6-3.185-4.598 3.185 1.775-5.326-4.73-3.638h5.79zm20.989 0l1.765-5.644 1.763 5.644h5.47l-4.4 3.666 1.766 5.298-4.6-3.185-4.599 3.185 1.775-5.326-4.73-3.638h5.79zm22.754-5.644l-1.764 5.644h-5.79l4.73 3.638-1.775 5.326 4.599-3.185 4.6 3.185-1.767-5.298 4.4-3.666h-5.47l-1.763-5.644z" fill="#A1273C"/><path fill-rule="evenodd" clip-rule="evenodd" d="M46.918 11.994c0 6.624-5.37 11.994-11.994 11.994S22.93 18.618 22.93 11.994 28.3 0 34.924 0s11.994 5.37 11.994 11.994zM29.64 40.264l3.673-12.396a.337.337 0 00-.282-.431l-.805-.1a13.357 13.357 0 01-5.216-1.801.262.262 0 00-.174-.034l-.732.112a32.773 32.773 0 00-10.71 3.62.643.643 0 00-.307.752l3.13 10.285a1 1 0 00.957.709h9.507a1 1 0 00.96-.716zm6.398-12.396l3.673 12.396a1 1 0 00.958.716h9.507a1 1 0 00.957-.71l3.13-10.284a.642.642 0 00-.307-.751 32.771 32.771 0 00-10.71-3.62l-.731-.113a.262.262 0 00-.175.034 13.357 13.357 0 01-5.215 1.8l-.806.101a.337.337 0 00-.281.43z" fill="#000"/></svg>