<svg width="71" height="60" fill="none" xmlns="http://www.w3.org/2000/svg"><path fill-rule="evenodd" clip-rule="evenodd" d="M63.407 16.164c0 7.822-6.341 14.163-14.164 14.163-7.822 0-14.163-6.34-14.163-14.163S41.42 2 49.243 2s14.164 6.341 14.164 14.164zm2 0c0 8.927-7.237 16.163-16.164 16.163-8.927 0-16.163-7.236-16.163-16.163S40.316 0 49.243 0s16.164 7.237 16.164 16.164zm-47.644 38.31L9.361 34.955l-6.733 2.899 8.402 19.518 6.733-2.898zm-7.356-22.146L0 36.808 9.984 60l10.407-4.48-9.984-23.193zm2.66 20.901a.437.437 0 10.161-.858.437.437 0 00-.16.858zm-.368 1.966a2.437 2.437 0 10.897-4.79 2.437 2.437 0 00-.897 4.79z" fill="#a1273c"/><path fill-rule="evenodd" clip-rule="evenodd" d="M44.22 7.668v.009h-.045v2h.046v6.61h-1.674v2h1.674v2.21h-1.674v2h1.674v3.349h2v-3.349h4.9v-2h-4.9v-2.21h7.682c.8 0 1.59-.186 2.306-.544 3.645-1.823 3.837-6.953.339-9.043l-.427-.255a5.43 5.43 0 00-2.785-.768h-7.115v-.01h-2zm2 8.62V9.676h7.116c.62 0 1.227.167 1.76.485l.426.255c2.142 1.28 2.025 4.42-.207 5.537a3.159 3.159 0 01-1.412.333H46.22zm21.142 19.157a1.2 1.2 0 01.954.055l.247.124a.758.758 0 01.412.763c-.1.87-.6 1.644-1.354 2.09l-8.776 5.212-3.116 1.33a46.225 46.225 0 01-18.76 3.711l-2.104-.027a20.112 20.112 0 01-3.711-.395 21.37 21.37 0 00-12.671 1.32l-1.542.663.79 1.837 1.542-.664a19.37 19.37 0 0111.486-1.196c1.343.271 2.71.417 4.08.435l2.104.027a48.225 48.225 0 0019.572-3.87l3.237-1.384 8.89-5.278a4.802 4.802 0 002.32-3.584 2.758 2.758 0 00-1.5-2.776l-.246-.124a3.2 3.2 0 00-2.542-.147l-13.772 5.05a2.966 2.966 0 00-2.593-2.124l-7.085-.614a7.69 7.69 0 01-1.287-.222l-.7-.184a26.036 26.036 0 01-6.2-2.517l-2.98-1.684a11.602 11.602 0 00-2.856-1.146l-1.178-.299a14.195 14.195 0 00-5.56-.284 10.092 10.092 0 00-4.923 2.176l-2.833 2.32-3.855 2.442 1.07 1.69 3.958-2.507 2.927-2.397a8.092 8.092 0 013.948-1.745 12.196 12.196 0 014.777.244l1.178.299c.826.21 1.621.528 2.363.948l2.98 1.684a28.037 28.037 0 006.676 2.71l.7.184c.532.14 1.075.233 1.623.281l7.084.614a.968.968 0 01.84 1.253c-.402 1.278-1.119 2.025-2.134 2.478-1.076.479-2.549.653-4.472.59-1.911-.06-4.15-.35-6.709-.71l-1.242-.177c-2.214-.316-4.628-.66-7.19-.93a1 1 0 00-.209 1.99c2.521.264 4.894.603 7.108.919l1.254.178c2.548.36 4.889.664 6.923.73 2.022.065 3.86-.1 5.35-.764 1.412-.628 2.455-1.679 3.062-3.228l14.645-5.37z" fill="#000"/></svg>