<svg viewBox="0 0 72 57" fill="none" xmlns="http://www.w3.org/2000/svg"><path fill-rule="evenodd" clip-rule="evenodd" d="M67.61 31.737a1.2 1.2 0 01.954.055l.247.124a.758.758 0 01.412.763c-.1.87-.6 1.644-1.353 2.091l-8.776 5.211-3.117 1.331a46.227 46.227 0 01-18.76 3.71l-2.103-.027a20.12 20.12 0 01-3.712-.395 21.37 21.37 0 00-12.671 1.32l-.474.214.776 1.803.489-.18a19.37 19.37 0 0111.485-1.197c1.344.271 2.71.417 4.08.435l2.104.027a48.227 48.227 0 0019.572-3.87l3.238-1.383 8.89-5.28a4.802 4.802 0 002.319-3.582 2.758 2.758 0 00-1.499-2.777l-.247-.124a3.2 3.2 0 00-2.542-.147L53.15 34.91a2.966 2.966 0 00-2.593-2.124l-7.084-.613a7.688 7.688 0 01-1.287-.223l-.7-.184a26.043 26.043 0 01-6.2-2.517l-2.98-1.684a11.607 11.607 0 00-2.856-1.146l-1.178-.299a14.197 14.197 0 00-5.56-.284 10.093 10.093 0 00-4.924 2.176l-2.833 2.32-2.657 1.961.798 1.855 3.032-2.191 2.928-2.397a8.091 8.091 0 013.947-1.745 12.195 12.195 0 014.777.244l1.178.299c.827.21 1.621.528 2.364.948l2.979 1.684a28.036 28.036 0 006.677 2.71l.7.184a9.59 9.59 0 001.622.281l7.084.614a.968.968 0 01.84 1.253c-.402 1.278-1.118 2.025-2.134 2.478-1.076.479-2.549.653-4.472.591-1.91-.062-4.15-.35-6.709-.711l-1.241-.177c-2.215-.316-4.63-.66-7.19-.93a1 1 0 00-.21 1.99c2.522.264 4.895.603 7.109.919l1.253.178c2.548.36 4.89.664 6.924.73 2.021.065 3.859-.1 5.35-.763 1.411-.629 2.455-1.68 3.06-3.23l14.646-5.369z" fill="#a1273c"/><path fill-rule="evenodd" clip-rule="evenodd" d="M49.34 2.236L36.966 3.98l12.417 1.65-.01.05 12.023-1.653-12.054-1.79zM31.663 3.267l.001.01-.02-.002-2.768 9.603 2.807.419v9.737l17.565 2.703c.112.04.233.054.353.036l17.727-2.577v-9.958l2.15-.31-3.013-9.599-.038.006.004-.024L49.346.773 31.662 3.267zm-.938 8.423l1.964-6.816L47.66 6.86l-1.423 7.142-15.513-2.313zM48.75 24.195l-.361-13.578-1.001 5.021-14.258-2.125v8.28l15.62 2.402zm.4-17.394h.019l-.01-.048-.01.048zm.667 3.07l.382 14.353 15.681-2.28v-8.497l-14.855 2.147-1.208-5.724zm15.633-4.94l2.138 6.807-15.427 2.229-1.479-7.006L65.45 4.93zM9.609 31.103l8.402 19.518-6.732 2.899-8.403-19.519 6.733-2.898zm-9.36 1.852l10.406-4.48 9.984 23.193-10.406 4.48L.248 32.956zm13.576 16.073a.437.437 0 11-.858-.16.437.437 0 01.858.16zm1.966.368a2.437 2.437 0 11-4.79-.897 2.437 2.437 0 014.79.897z" fill="#000"/></svg>