<svg viewBox="0 0 64 61" fill="none" xmlns="http://www.w3.org/2000/svg"><path fill-rule="evenodd" clip-rule="evenodd" d="M41.387 11.088a9.087 9.087 0 11-18.173 0 9.087 9.087 0 0118.173 0zm1.997 0c0 6.12-4.962 11.082-11.083 11.082s-11.083-4.962-11.083-11.082C21.218 4.967 26.18.005 32.301.005c6.12 0 11.083 4.962 11.083 11.083zM17.504 26.48L8.176 40.935 3.19 37.717l9.327-14.454 4.985 3.217zm-5.469-5.455l7.707 4.973L8.659 43.173.953 38.2l11.082-17.175zM7.36 37.402a.353.353 0 11-.28-.65.353.353 0 01.28.65zM8 38.889a1.972 1.972 0 11-1.559-3.623 1.972 1.972 0 011.558 3.623zM47.11 26.48l9.327 14.455 4.986-3.218-9.326-14.454-4.986 3.217zm5.47-5.455l-7.708 4.973 11.083 17.175L63.66 38.2 52.578 21.025zm4.675 16.377a.353.353 0 10.28-.65.353.353 0 00-.28.65zm-.64 1.487a1.972 1.972 0 101.56-3.623 1.972 1.972 0 00-1.56 3.623z" fill="#a1273c"/><path fill-rule="evenodd" clip-rule="evenodd" d="M29.991 13.774l8.056-7.964 1.403 1.42-9.448 9.341-.021-.02-.004.003-4.558-4.46 1.396-1.427 3.176 3.107zm-2.448 15.142c4.322-1.518 8.033-1.116 11.271-.57.37.062.738.128 1.104.192h.002c1.208.215 2.385.423 3.458.501 1.422.103 1.848.127 3.242-.332l-1.121-1.737c-.812.23-.726.169-1.976.078-.961-.07-1.996-.253-3.177-.462h-.002c-.383-.068-.782-.138-1.198-.208-3.342-.564-7.46-1.033-12.265.655-.889.312-1.846.911-2.761 1.656l-.333.028c-1.933.164-3.475-.116-4.827-1.507l-1.08 1.674c1.328 1.367 2.35 1.517 4.205 1.773l-.143.165c-.72.84-1.358 1.748-1.807 2.632-.43.845-.744 1.778-.684 2.652.007.936.268 1.734.82 2.31.558.579 1.286.802 1.96.834 1.287.06 2.7-.552 3.501-1.353 1.08-1.081 1.866-1.869 2.49-2.452.628-.587 1.044-.923 1.38-1.127.524-.319.869-.351 1.97-.355 1.7 1.03 3.343 2 4.9 2.918 3.442 2.034 6.461 3.816 8.738 5.432 1.68 1.19 2.842 2.216 3.46 3.1.303.432.437.778.472 1.048a1.1 1.1 0 01-.172.75c-.425.701-.734.864-.995.907-.35.058-.937-.044-2.028-.556-1.062-.498-2.421-1.291-4.26-2.382l-.542-.322a276.326 276.326 0 00-6.358-3.69.998.998 0 00-.976 1.741 274.523 274.523 0 016.315 3.665l.543.323c1.813 1.076 3.262 1.925 4.43 2.473.167.078.333.152.497.222a1 1 0 00.182.11.543.543 0 01.19.205c.057.11.23.522-.255 1.494-.303.48-.566.63-.863.677-.393.063-1.03-.024-2.118-.453a13.573 13.573 0 01-.108-.043 2.742 2.742 0 00-.523-.223l-.02-.006c-1.79-.792-4.256-2.18-7.811-4.18-.751-.422-1.55-.872-2.403-1.35a.998.998 0 00-.976 1.742l2.37 1.331.003.003c3.514 1.977 6.087 3.426 7.997 4.273a.971.971 0 00.14.061c.108.047.213.093.317.136a.37.37 0 01.05.043.173.173 0 01.049.12c.006.077-.004.278-.186.643-.16.265-.433.45-1.004.485-.625.038-1.488-.123-2.57-.504-2.148-.757-4.813-2.256-7.47-3.974a.998.998 0 10-1.085 1.676c2.689 1.738 5.515 3.343 7.892 4.18.143.051.285.1.428.145.005.082-.013.267-.171.597-.083.081-.271.205-.664.295-.45.102-1.061.133-1.802.064-1.237-.116-2.722-.497-4.207-1.134a3.357 3.357 0 00-2.445-4.338 3.907 3.907 0 00-3.112-5.727 3.668 3.668 0 00-6.34-3.49l-.066.084a3.355 3.355 0 00-5.623-.54l-.585.744c-.757-1.221-1.045-1.762-2.093-2.749L9.62 41.684c1.097 1.033 1.127 1.412 1.856 2.73l.022-.011-.146.186a3.355 3.355 0 002.16 5.395 3.668 3.668 0 004.377 4.559 3.904 3.904 0 005.364 3.123 3.355 3.355 0 005.836 1.057l.8-1.017c1.753.79 3.557 1.276 5.11 1.42.876.082 1.712.059 2.431-.105.705-.16 1.42-.485 1.873-1.111l.044-.061.035-.068c.21-.41.343-.796.402-1.157.332.037.655.048.965.029 1.055-.065 2.042-.492 2.624-1.502l.013-.022.01-.023c.192-.374.32-.738.38-1.09.488.086.952.104 1.392.033 1.033-.167 1.745-.787 2.266-1.635l.021-.035.019-.036c.429-.843.595-1.585.564-2.224.088-.007.175-.017.261-.031 1.084-.179 1.81-.907 2.377-1.84.388-.638.538-1.33.446-2.043a3.772 3.772 0 00-.333-1.11c1.95-1.17 2.738-1.653 4.229-3.373l-1.06-1.643c-1.382 1.595-2.496 2.301-4.311 3.372-.83-.912-1.964-1.832-3.282-2.766-2.346-1.665-5.485-3.52-8.976-5.58-1.522-.9-3.111-1.838-4.731-2.818a.995.995 0 00-.733-.32h-.212c-1.18-.003-2.08-.004-3.148.645-.518.315-1.056.767-1.707 1.375-.654.612-1.47 1.428-2.538 2.499-.426.426-1.3.802-1.995.77-.317-.016-.504-.11-.614-.224-.106-.11-.264-.368-.264-.965v-.042l-.003-.04c-.029-.341.097-.893.47-1.626.36-.71.9-1.486 1.544-2.239 1.316-1.536 2.919-2.794 4.085-3.204zM14.962 43.227l-2.04 2.596a1.359 1.359 0 002.136 1.68l2.04-2.596a1.36 1.36 0 00-2.136-1.68zm.768 6.715l4.92-6.258a1.67 1.67 0 012.627 2.066l-4.921 6.258a1.67 1.67 0 01-2.626-2.066zm7.854-1.29l-3.32 4.222a1.91 1.91 0 103.001 2.36l3.32-4.222a1.91 1.91 0 10-3.001-2.36zm1.799 7.157l1.343-1.708a1.359 1.359 0 112.137 1.68l-1.344 1.708a1.36 1.36 0 11-2.136-1.68z" fill="#000"/></svg>