<svg width="62" height="60" fill="none" xmlns="http://www.w3.org/2000/svg"><path d="M6.869 45.006l-.374.017c-5.027.234-6.239 7.125-1.594 9.06l.411.172a39.338 39.338 0 008.663 2.49l4.525.755L31 58l12.5-.5 4.525-.754a39.34 39.34 0 008.663-2.49l.411-.172c4.645-1.936 3.433-8.827-1.593-9.06l-.375-.018c-.035-.002-.05.045-.02.065 2.218 1.41 1.87 4.749-.592 5.672L52.5 51.5a32.79 32.79 0 01-8.25 1.925l-.75.075-5.5.5H24l-5.5-.5-.75-.075A32.791 32.791 0 019.5 51.5l-2.019-.757c-2.461-.923-2.81-4.261-.592-5.672.03-.02.015-.067-.02-.065z" fill="#A1273C"/><path fill-rule="evenodd" clip-rule="evenodd" d="M31 12a6 6 0 100-12 6 6 0 000 12zm-15.5 1a5.5 5.5 0 100-11 5.5 5.5 0 000 11zM51 7.5a5.5 5.5 0 11-11 0 5.5 5.5 0 0111 0zM18.682 15h-5.537a5.938 5.938 0 00-3.055.846l-.145.087a3.79 3.79 0 00-1.438 1.553A4.802 4.802 0 008 19.634v7.538c0 .55.054 1.1.162 1.64a3.178 3.178 0 001.937 2.327l.859.344c.025.01.042.035.042.062V47.5h2l1.511-9.974c.172-1.134 1.806-1.134 1.978 0L18 47.5h2V34.643a.447.447 0 00-.083-.26 12.974 12.974 0 01-2.417-7.54v-5.818c0-1.99.468-3.96 1.357-5.74a.197.197 0 00-.175-.285zm29.173 0H42.3a.197.197 0 00-.181.274l.04.093a16.604 16.604 0 011.342 6.541v4.934c0 2.704-.845 5.34-2.417 7.541a.447.447 0 00-.083.26V47.5h2l1.511-9.974c.172-1.134 1.806-1.134 1.978 0L48 47.5h2V31.545c0-.027.017-.052.042-.062l.86-.344a3.178 3.178 0 001.936-2.327c.108-.54.162-1.09.162-1.64v-7.538a4.8 4.8 0 00-.507-2.148 3.786 3.786 0 00-1.439-1.553l-.144-.087A5.938 5.938 0 0047.855 15zm-14.371-1h-6.191c-.526 0-1.05.073-1.555.218l-.685.196a4.048 4.048 0 00-2.728 2.611A6.332 6.332 0 0022 19.028v8.957c0 .01 0 .02.002.03a5.944 5.944 0 003.205 4.338l.187.094c.065.032.106.1.106.172V49.5H28l1.51-10.868c.16-1.15 1.82-1.15 1.98 0L33 49.5h2.5V32.592c0-.056.034-.106.086-.126a4.498 4.498 0 002.782-3.54l.13-.913a.176.176 0 00.002-.026V18.95c0-.63-.102-1.254-.3-1.851a4.194 4.194 0 00-2.827-2.707l-.876-.25A3.689 3.689 0 0033.484 14z" fill="#000"/></svg>