<svg viewBox="0 0 64 60" fill="none" xmlns="http://www.w3.org/2000/svg"><path fill-rule="evenodd" clip-rule="evenodd" d="M32.858 15.494a87.98 87.98 0 0115.434-2.507l2.752 15.661h-6.048l-1.197-6.839c-2.081 0-4.16.077-6.232.229a8.606 8.606 0 00-.572-1.912c-.662-1.53-1.973-3.238-4.274-3.552-3.369-.459-5.683.64-7.148 2.471-1.227 1.534-1.788 3.49-2.01 5.203-.69.169-1.378.346-2.064.532l-.135.037-.27.092a65.747 65.747 0 01-8.7 2.295l-1.445-7.983a68.797 68.797 0 0017.125-2.474l1.506-.416 3.278-.837zm-7.193 8.268a85.177 85.177 0 019.899-1.554 6.633 6.633 0 00-.405-1.287c-.523-1.21-1.39-2.185-2.708-2.365-2.732-.372-4.327.502-5.317 1.739-.767.958-1.225 2.206-1.469 3.467zm11.746.293a83.177 83.177 0 00-15.389 2.656l-.075.02-.212.072A67.74 67.74 0 012.354 30.34l2.681 16.513a89.115 89.115 0 0019.663-2.582l.12-.03a104.149 104.149 0 0120.236-3.656l-2.933-16.76a83.195 83.195 0 00-4.618.222 1.397 1.397 0 01-.02.043l-.072-.036zm-26.986 3.496L8.556 17.23h1.198a66.83 66.83 0 0017.788-2.412l1.525-.421 3.296-.842A89.97 89.97 0 0149.06 10.93l.892-.055 3.474 19.772h-8.08l2.06 11.78-.197.011a102.149 102.149 0 00-21.877 3.736l-.155.039a91.109 91.109 0 01-21.84 2.656L.008 28.381a65.756 65.756 0 0010.416-.83zm20.563 8.882c.762-4.144-1.323-8.01-5.44-8.572-6.1-.832-9.234 3.751-9.52 7.302-.287 3.551 2.279 7.191 5.657 7.614 3.378.422 7.917-.582 9.303-6.344zm-4.842 3.724c1.174-.623 2.31-1.803 2.885-4.138.588-3.322-1.084-5.813-3.753-6.176-2.456-.335-4.161.412-5.301 1.483-1.199 1.126-1.85 2.688-1.956 3.998-.216 2.68 1.781 5.202 3.912 5.468 1.422.178 2.954.033 4.213-.635z" fill="#a1273c"/><path fill-rule="evenodd" clip-rule="evenodd" d="M11.616 8.304l-.37-6.702a1 1 0 00-1.997.11l.495 8.986a1 1 0 001.054.944l8.986-.495a1 1 0 10-.11-1.997l-6.415.353A27.923 27.923 0 0132.37 1.976c15.477 0 28.024 12.547 28.024 28.024S47.847 58.024 32.37 58.024a27.922 27.922 0 01-19.105-7.521 1 1 0 00-1.364 1.463 29.922 29.922 0 0020.469 8.058c16.582 0 30.024-13.442 30.024-30.024S48.952-.024 32.37-.024a29.926 29.926 0 00-20.754 8.328z" fill="#000"/></svg>