<svg width="94" height="60" fill="none" xmlns="http://www.w3.org/2000/svg"><path fill-rule="evenodd" clip-rule="evenodd" d="M39.515 0h.03l20.134.593a4 4 0 013.46 2.21l5.52 11.038 1.147-2.388a2 2 0 011.803-1.134h5.398a2 2 0 011.966 2.368l-.36 1.929a2 2 0 01-1.818 1.627l-6.186.46a2.032 2.032 0 01-.534-.03l.03.059-1.501.1-5.94.395a3 3 0 00-2.8 2.994v24.924a2 2 0 01-2 2h-42.5v.225a3 3 0 01-3 3h-7.61a3 3 0 01-3-3V23.738a6 6 0 012.78-5.062l2.2-1.4-4.577-.381A2 2 0 01.351 15.23l-.323-1.938A2 2 0 012 10.964h4.61a2 2 0 011.838 1.212l1.02 2.38c.051.119.09.239.116.358l6.947-12.29a4 4 0 013.361-2.03L39.485.002l.03-.001zm.001 2l-19.563.594a2 2 0 00-1.681 1.015l-6.345 11.225H66.92L61.351 3.697a2 2 0 00-1.73-1.105l-20.105-.591zm-29.34 15.456c.25-.159.46-.372.618-.622h48.391a4.987 4.987 0 00-1.322 3.387v24.924h-42.5a2 2 0 00-2 2v.225a1 1 0 01-1 1H4.756a1 1 0 01-1-1V23.738a4 4 0 011.852-3.375l4.568-2.907zm17.44 15.676a2 2 0 011.926-1.465h19.302a2 2 0 011.927 1.465l2.262 8.144h-27.68l2.262-8.144zm1.926-3.465a4 4 0 00-3.854 2.93l-2.262 8.143a2 2 0 001.927 2.536h27.68a2 2 0 001.927-2.536l-2.262-8.144a4 4 0 00-3.854-2.929H29.542zm-23.918-.469a2 2 0 012.21-1.989l10.253 1.08a2 2 0 011.79 1.988v2.504a2 2 0 01-2.208 1.989L7.415 33.69a2 2 0 01-1.79-1.988v-2.504zm12.254 1.08l-10.254-1.08v2.503l10.254 1.08v-2.504zM7.269 41.275a1 1 0 000 2h9.03a1 1 0 100-2h-9.03zM33.356 4.87a1 1 0 011-1h9.03a1 1 0 110 2h-9.03a1 1 0 01-1-1zM6.61 12.964H2l.323 1.938 5.307.442-1.02-2.38zm70.397-.645h-5.398l-1.148 2.39 6.185-.46.36-1.93z" fill="#000"/><path fill-rule="evenodd" clip-rule="evenodd" d="M78.032 21.397a1 1 0 01.358 0l12.188 2.216a1 1 0 01.821.984v19.988a.995.995 0 01-.344.755 669.94 669.94 0 00-8.6 7.57 165.14 165.14 0 00-3.515 3.233c-.369.353-.686.666-.935.924a35.281 35.281 0 01-.575-.486 160.25 160.25 0 01-3.495-3.143 731.569 731.569 0 01-8.606-8.074.989.989 0 01-.306-.72V24.598a1 1 0 01.82-.984l12.19-2.216zm.716-1.968a3 3 0 00-1.074 0l-12.188 2.216a3 3 0 00-2.463 2.952v20.047c0 .818.331 1.601.927 2.169a734.435 734.435 0 008.631 8.097c1.393 1.28 2.64 2.408 3.544 3.186.448.386.828.701 1.105.908.127.095.279.202.421.276l.004.003c.047.024.23.12.467.135a1.025 1.025 0 001.008-.618c.04-.048.102-.119.191-.215.225-.241.564-.578 1.002-.997.87-.834 2.09-1.95 3.469-3.19a667.16 667.16 0 018.573-7.546 2.995 2.995 0 001.034-2.267V24.597a3 3 0 00-2.463-2.952L78.748 19.43zm-.498 23.576l10.319-9.674-1.368-1.459-9.649 9.046-5.766-5.19-1.338 1.487 6.45 5.804.682.614.67-.628z" fill="#A1273C"/></svg>