<svg width="50" height="60" fill="none" xmlns="http://www.w3.org/2000/svg"><path fill-rule="evenodd" clip-rule="evenodd" d="M25.063.185A42.546 42.546 0 011.706 9.046l-1.463.095-.004.479C.22 12.036.133 22.177.754 28.336 1.437 35.102 3.885 45.16 9.541 50.6c7.937 7.634 15.522 9.214 15.522 9.214s9.863-2.604 16.81-10.237c4.953-5.44 7-13.25 7.679-21.243.505-5.943 0-19.62 0-19.62A44.305 44.305 0 0125.294.351l-.23-.167zM25.1 2.66a44.547 44.547 0 01-22.87 8.356c-.02 3.704-.011 11.896.515 17.12.33 3.26 1.084 7.308 2.428 11.174 1.352 3.889 3.245 7.436 5.756 9.851 3.787 3.642 7.477 5.828 10.197 7.099a27.681 27.681 0 003.239 1.285c.264.085.486.15.66.198.253-.078.6-.19 1.025-.34.976-.343 2.357-.88 3.947-1.645 3.195-1.538 7.155-3.962 10.399-7.526 4.51-4.955 6.498-12.23 7.164-20.065.243-2.857.246-7.666.183-11.84-.032-2.07-.079-3.956-.118-5.324l-.012-.398A46.305 46.305 0 0125.099 2.66z" fill="#000"/><path d="M25.099 2.659a44.547 44.547 0 01-22.87 8.356c-.02 3.704-.011 11.896.515 17.12.33 3.26 1.084 7.308 2.428 11.174 1.352 3.889 3.245 7.436 5.756 9.851 3.787 3.642 7.477 5.828 10.197 7.099a27.681 27.681 0 003.239 1.285c.264.085.486.15.66.198.253-.078.6-.19 1.025-.34.976-.343 2.357-.88 3.947-1.645 3.195-1.538 7.155-3.962 10.399-7.526 4.51-4.955 6.498-12.23 7.164-20.065.243-2.857.246-7.666.183-11.84-.032-2.07-.079-3.956-.118-5.324l-.012-.398a46.305 46.305 0 01-22.514-7.945z" fill="#000"/><path fill-rule="evenodd" clip-rule="evenodd" d="M24.784 43.235a.996.996 0 01-.544-.24L12.297 32.587a1 1 0 111.314-1.508l11.116 9.688L37.89 21.376a1 1 0 011.655 1.123L25.759 42.807a1 1 0 01-.975.428z" fill="#A1273C"/></svg>