<svg viewBox="0 0 20 20" fill="none" xmlns="http://www.w3.org/2000/svg"><path d="M13.454 9.905C13.341 7.6 11.7 6.214 9.717 6.214h-.074c-2.288 0-3.556 1.875-3.556 4.005 0 2.384 1.535 3.89 3.547 3.89 2.244 0 3.719-1.712 3.826-3.739l-.006-.465zM9.653 4.152c1.528 0 2.966.704 4.02 1.807v.004c0-.53.343-.929.817-.929h.12c.742 0 .894.731.894.963l.004 8.23c-.052.54.534.817.858.472 1.268-1.358 2.785-6.982-.788-10.24-3.33-3.038-7.798-2.537-10.174-.83-2.525 1.816-4.142 5.835-2.571 9.61 1.71 4.117 6.609 5.345 9.52 4.12 1.474-.62 2.155 1.457.624 2.135-2.313 1.027-8.751.923-11.76-4.506C-.813 11.32-.705 4.87 4.684 1.528c4.123-2.558 9.559-1.85 12.835 1.718 3.427 3.73 3.227 10.714-.115 13.43-1.514 1.233-3.763.033-3.748-1.765l-.015-.587a5.616 5.616 0 01-1.828 1.277 5.428 5.428 0 01-2.158.45c-3.02 0-5.677-2.77-5.677-5.918 0-3.179 2.657-5.98 5.677-5.98" fill="#000"/></svg>