<svg width="28" height="15" fill="none" xmlns="http://www.w3.org/2000/svg"><path fill-rule="evenodd" clip-rule="evenodd" d="M10.442 1.007A1.01 1.01 0 0111.454 0h4.904c.683.201.683.64.683 1.007 0 .498-.355.73-.464.993v4.746a7.309 7.309 0 004.078-4.404l.157-.47A1.01 1.01 0 0121.815.729h4.95a1.01 1.01 0 011.011 1.007c0 .327-.156.617-.397.801-.87 2.389-3.26 4.448-5.133 6.173 1.443 1.225 3.673 2.723 4.738 4.284.453.1.792.503.792.984a1.01 1.01 0 01-1.012 1.007h-4.949c-.316 0-.599-.144-.785-.37l-.005.003-.263-.373a8.898 8.898 0 00-4.185-3.219v3.467a.505.505 0 01-.56.5v.003A12.019 12.019 0 017.2 11.461l-.897-.903-.004-.003a19.154 19.154 0 01-4.615-7.816 1.01 1.01 0 01-.908-1.003A1.01 1.01 0 011.788.73h4.766c.28 0 .821.451.821 1.007 0 .233.163.617.163.617l.241.386c.977 1.567 2.171 3.755 3.675 4.82l.084-5.544h-.084a1.01 1.01 0 01-1.012-1.008z" fill="#000"/></svg>