<svg width="63" height="60" fill="none" xmlns="http://www.w3.org/2000/svg"><path fill-rule="evenodd" clip-rule="evenodd" d="M40.434 11.083a9.087 9.087 0 11-18.173 0 9.087 9.087 0 0118.173 0zm1.997 0c0 6.12-4.962 11.083-11.083 11.083-6.12 0-11.083-4.962-11.083-11.083S25.227 0 31.348 0c6.12 0 11.083 4.962 11.083 11.083zM16.55 26.476L7.224 40.93l-4.986-3.218 9.327-14.454 4.986 3.218zm-5.469-5.456l7.707 4.973L7.707 43.168 0 38.195 11.082 21.02zM6.406 37.397a.353.353 0 11-.28-.649.353.353 0 01.28.65zm.64 1.488a1.972 1.972 0 11-1.559-3.624 1.972 1.972 0 011.559 3.624zm39.11-12.41l9.328 14.455 4.985-3.218-9.326-14.454-4.986 3.218zm5.47-5.455l-7.707 4.973L55 43.168l7.707-4.973L51.625 21.02zM56.3 37.397a.353.353 0 10.28-.649.353.353 0 00-.28.65zm-.64 1.488a1.972 1.972 0 101.56-3.624 1.972 1.972 0 00-1.56 3.624z" fill="#a1273c"/><path fill-rule="evenodd" clip-rule="evenodd" d="M29.038 13.77l8.056-7.965 1.403 1.42-9.448 9.341-.021-.02-.004.003-4.558-4.46 1.396-1.427 3.176 3.107zM26.59 28.911c4.323-1.518 8.033-1.117 11.271-.57.37.061.739.127 1.104.192h.002c1.208.214 2.385.422 3.458.5 1.422.104 2.828-.003 4.103-.697l-.954-1.753c-.793.431-1.754.55-3.004.46-.961-.07-1.996-.254-3.176-.463h-.003c-.383-.068-.782-.138-1.198-.208-3.342-.564-7.459-1.033-12.265.655-.889.312-1.846.911-2.761 1.656l-.333.028a6.476 6.476 0 01-5.19-1.94l-1.432 1.391a8.474 8.474 0 004.92 2.49l-.143.164c-.72.84-1.358 1.748-1.807 2.632-.43.845-.744 1.779-.684 2.652.007.937.268 1.734.821 2.31.557.579 1.285.802 1.959.834 1.287.06 2.7-.552 3.501-1.353 1.08-1.08 1.866-1.869 2.49-2.452.628-.587 1.045-.923 1.38-1.127.524-.319.869-.351 1.97-.355 1.7 1.03 3.343 2 4.9 2.919 3.443 2.033 6.461 3.815 8.738 5.431 1.68 1.191 2.842 2.216 3.46 3.1.303.432.437.778.472 1.048.032.249-.01.486-.171.75-.426.701-.735.864-.996.907-.35.058-.936-.044-2.028-.556-1.062-.498-2.42-1.291-4.26-2.382l-.542-.322a275.666 275.666 0 00-6.358-3.69.998.998 0 00-.976 1.741c2.522 1.413 4.59 2.641 6.315 3.665l.543.323c1.813 1.076 3.262 1.925 4.43 2.473.167.078.333.152.497.222a1 1 0 00.182.11.543.543 0 01.19.205c.058.11.23.522-.255 1.495-.302.479-.566.628-.863.676-.393.063-1.03-.024-2.118-.453a18.786 18.786 0 01-.108-.043 2.726 2.726 0 00-.523-.223l-.02-.006c-1.789-.791-4.255-2.18-7.81-4.18l-2.404-1.35a.998.998 0 00-.975 1.743l2.368 1.33.004.003c3.514 1.977 6.088 3.426 7.998 4.273.044.024.09.044.139.061.108.047.213.093.317.136a.37.37 0 01.05.043.172.172 0 01.049.12c.006.077-.004.278-.186.643-.16.265-.433.45-1.004.485-.625.038-1.488-.123-2.57-.504-2.147-.757-4.813-2.256-7.47-3.974a.998.998 0 10-1.085 1.676c2.689 1.738 5.515 3.343 7.892 4.18.143.051.286.1.428.145.005.082-.013.267-.171.597-.083.082-.271.205-.663.295-.45.102-1.062.133-1.803.064-1.237-.115-2.722-.497-4.207-1.134a3.357 3.357 0 00-2.445-4.338 3.907 3.907 0 00-3.112-5.727 3.668 3.668 0 00-6.34-3.49l-.065.084a3.355 3.355 0 00-5.623-.54l-.586.744a16.527 16.527 0 00-2.719-3.326l-.028-.027-1.369 1.453.029.027a14.53 14.53 0 012.756 3.55l.022-.012-.146.186a3.355 3.355 0 002.16 5.395 3.668 3.668 0 004.377 4.559A3.904 3.904 0 0022.3 57.66a3.355 3.355 0 005.836 1.057l.8-1.017c1.753.79 3.557 1.276 5.11 1.42.876.082 1.712.06 2.432-.105.704-.16 1.419-.485 1.872-1.11l.044-.062.035-.068c.21-.41.343-.796.402-1.156.332.036.655.047.965.028 1.055-.065 2.042-.491 2.624-1.502l.013-.022.011-.023a3.82 3.82 0 00.379-1.09c.488.086.952.104 1.392.033 1.033-.166 1.745-.787 2.266-1.635l.021-.035.019-.036c.429-.843.595-1.585.565-2.224.087-.007.174-.017.26-.031 1.084-.179 1.81-.907 2.378-1.84.387-.638.537-1.33.445-2.043a3.772 3.772 0 00-.333-1.11 21.505 21.505 0 005.195-4.36l-1.509-1.308a19.51 19.51 0 01-4.828 4.024c-.83-.912-1.964-1.832-3.281-2.766-2.347-1.665-5.486-3.519-8.977-5.58-1.522-.9-3.111-1.838-4.731-2.818a.995.995 0 00-.732-.32h-.212c-1.18-.003-2.08-.004-3.149.645-.518.315-1.056.767-1.706 1.375-.655.612-1.47 1.428-2.54 2.5-.425.425-1.3.801-1.994.769-.317-.015-.504-.11-.614-.224-.106-.11-.264-.368-.264-.965v-.042l-.003-.04c-.029-.341.097-.893.47-1.626.36-.71.9-1.486 1.544-2.238 1.316-1.537 2.92-2.795 4.085-3.204zm-12.581 14.31l-2.04 2.596a1.359 1.359 0 102.136 1.68l2.04-2.595a1.36 1.36 0 00-2.136-1.68zm.768 6.715l4.92-6.257a1.67 1.67 0 012.627 2.065l-4.92 6.258a1.67 1.67 0 01-2.627-2.066zm7.854-1.29l-3.32 4.222a1.91 1.91 0 103.001 2.36l3.32-4.222a1.91 1.91 0 10-3.001-2.36zm1.799 7.157l1.343-1.708a1.36 1.36 0 012.137 1.68l-1.343 1.708a1.36 1.36 0 11-2.137-1.68z" fill="#000"/></svg>