<svg width="72" height="60" fill="none" xmlns="http://www.w3.org/2000/svg"><path d="M26.522 8.748l13.067 7.544L28.563 35.39l-13.067-7.544L26.522 8.748z" fill="#000"/><path fill-rule="evenodd" clip-rule="evenodd" d="M25.203.672A1.344 1.344 0 0127.04.18l19.78 11.433a1.344 1.344 0 01-1.346 2.326L25.695 2.508a1.344 1.344 0 01-.49-1.836zM9.618 30.326a1.344 1.344 0 10-1.344 2.327l19.78 11.431a1.344 1.344 0 001.344-2.327L9.618 30.326z" fill="#A1273C"/><path fill-rule="evenodd" clip-rule="evenodd" d="M25.538 5.077L43.26 15.309l-6.015 10.418L70.468 46.73a1.344 1.344 0 01-1.436 2.272L35.9 28.056l-6.354 11.006L11.824 28.83 25.538 5.077zm14.05 11.215L26.523 8.748 15.496 27.846l13.067 7.544 11.026-19.098zM7.033 54.625a2.688 2.688 0 00-2.687 2.687H0V60h39.175v-2.688h-4.346a2.688 2.688 0 00-2.688-2.687H7.033z" fill="#000"/></svg>