<svg width="73" height="62" fill="none" xmlns="http://www.w3.org/2000/svg"><path fill-rule="evenodd" clip-rule="evenodd" d="M46.405 8.777C50.273 3.595 58.203 4.144 61.32 9.81c.333.605.543 1.27.618 1.956l1.58 14.392a1 1 0 101.987-.219l-1.579-14.391a7.249 7.249 0 00-.854-2.702c-3.817-6.94-13.53-7.613-18.269-1.266l-.434.583a8.087 8.087 0 00-1.585 4.247l-.992 13.566a1 1 0 101.994.146l.993-13.566a6.087 6.087 0 011.192-3.197l.435-.582zm-4.907 28.779a14.964 14.964 0 00-3.85-.019l-.37.047a4.315 4.315 0 00-3.78 4.281v1.43c0 .865.169 1.721.496 2.522l.572 1.4a4.868 4.868 0 005.271 2.968l.136-.022a5.483 5.483 0 004.126-3.134l.583-1.275a5.913 5.913 0 00.536-2.46V41.87c0-.298-.03-.596-.092-.888l-.012-.06a4.275 4.275 0 00-3.616-3.366zm-10 5.739a8.67 8.67 0 00.644 3.278l.572 1.4a6.869 6.869 0 007.437 4.187l.136-.022a7.484 7.484 0 005.63-4.277l.584-1.274a7.914 7.914 0 00.717-3.292V41.87c0-.435-.045-.87-.134-1.295l-.012-.06a6.275 6.275 0 00-5.307-4.942 16.968 16.968 0 00-4.364-.02l-.37.046a6.315 6.315 0 00-5.532 6.266v1.43zm21.151-6.166a9.764 9.764 0 01-.524-.068 5.619 5.619 0 01-3.86-2.519 10.886 10.886 0 01-1.08-2.216l-.767-2.172a1 1 0 111.886-.666l.767 2.17a8.84 8.84 0 00.882 1.81 3.62 3.62 0 002.482 1.617c.798.126 1.62.127 2.415.002l.106-.016a3.41 3.41 0 002.348-1.538l.196-.308c.258-.406.47-.84.63-1.294l.662-1.872a1.8 1.8 0 011.817-1.195l1.906.128a11.262 11.262 0 019.023 5.652 10.66 10.66 0 011.403 5.286v17.377a1 1 0 11-2 0V39.93a8.66 8.66 0 00-1.14-4.294 9.262 9.262 0 00-7.42-4.648l-1.754-.118-.611 1.728a8.352 8.352 0 01-.828 1.7l-.196.308a5.41 5.41 0 01-3.725 2.44l-.106.017a9.54 9.54 0 01-.512.066v6.166a1 1 0 01-2 0v-6.166zm12.861 4.01a1 1 0 10-2 0v18.324a1 1 0 002 0V41.139zM36.5 42.295a1 1 0 100 2h.572a1 1 0 100-2H36.5zm7.543 11.471a2 2 0 00-1.56.202l-3.66 2.157-3.062-2.061a2 2 0 00-1.784-.227l-2.3.814a7 7 0 00-3.383 2.558l-1.185 1.676a1 1 0 001.633 1.155l1.185-1.676a5 5 0 012.416-1.828l2.3-.813 3.062 2.061a2 2 0 002.132.064l3.662-2.157 2.147.607a5 5 0 013.425 3.361l.191.633a1 1 0 101.914-.58l-.191-.633a7 7 0 00-4.794-4.705l-2.148-.608zm-3.398-10.471a1 1 0 011-1h.571a1 1 0 110 2h-.571a1 1 0 01-1-1zm11.948-30.19l-.474.671a4.625 4.625 0 01-3.607 1.952l.976 6.903.227.97c.967 4.147 6.967 3.846 7.515-.376l.992.129-.991-.132.947-7.142a.309.309 0 00-.306-.35 6.563 6.563 0 01-4.918-2.216l-.361-.408zm6.62 10.378l.947-7.14a2.309 2.309 0 00-2.288-2.612 4.563 4.563 0 01-3.42-1.541l-.868-.983a1.394 1.394 0 00-2.182.119l-.916 1.295a2.624 2.624 0 01-2.143 1.11 1.853 1.853 0 00-1.835 2.112l1.006 7.112.006.044.01.043.237 1.014c1.474 6.315 10.61 5.857 11.447-.572v-.001z" fill="#A1273C"/><path fill-rule="evenodd" clip-rule="evenodd" d="M19.566 3.161a19.033 19.033 0 015.273.027l.548.08a4.84 4.84 0 014.058 3.873l.23 1.19c.122.636.441 1.216.912 1.66.217.205.34.49.34.788v.739c0 .4-.165.78-.455 1.055a3.45 3.45 0 00-.81 1.162l-1.501 3.54a7.098 7.098 0 01-5.335 4.224l-.163.027a6.414 6.414 0 01-7.082-4.05l-1.312-3.462a3.28 3.28 0 00-1.322-1.615 1.28 1.28 0 01-.599-1.084v-.3c0-.362.186-.699.493-.892a3.053 3.053 0 001.373-2.006l.261-1.358a4.237 4.237 0 013.595-3.396l1.496-.202zm5.56-1.952a21.033 21.033 0 00-5.827-.03l-1.496.202a6.237 6.237 0 00-5.291 5l-.262 1.357a1.053 1.053 0 01-.474.692 3.053 3.053 0 00-1.428 2.585v.3a3.28 3.28 0 001.535 2.777c.236.149.417.37.516.63l1.311 3.463a8.415 8.415 0 009.291 5.313l.163-.028a9.098 9.098 0 006.838-5.414l1.502-3.54a1.45 1.45 0 01.34-.488 3.45 3.45 0 001.083-2.51v-.739c0-.849-.35-1.66-.968-2.243a1.083 1.083 0 01-.32-.583l-.23-1.19a6.84 6.84 0 00-5.735-5.475l-.548-.08zM9.49 41.139a1 1 0 10-2 0v18.323h1-1a1 1 0 102 0h-1 1V41.139zm7.146-29.642a1 1 0 011-1h1.715a1 1 0 010 2h-1.715a1 1 0 01-1-1zm7.86-1a1 1 0 000 2h1.715a1 1 0 100-2h-1.715zm-9.743 16.2a1.645 1.645 0 011.693 1.269l6.165 26.419a1 1 0 11-1.947.455l-6.098-26.13-4.376.243a11.344 11.344 0 00-7.153 3.072 3.115 3.115 0 00-.978 2.266v23.016a1 1 0 11-2 0V34.291c0-1.408.58-2.755 1.606-3.72a13.343 13.343 0 018.414-3.615l4.674-.26zm14.203-.468a2 2 0 00-2.177 1.64l-.982 5.55a1 1 0 001.97.349l.981-5.55 4.882.511a11 11 0 016.917 3.458l.936 1.009a1 1 0 001.466-1.36l-.936-1.01a13 13 0 00-8.175-4.086l-4.882-.511zm-6.319 3.915v8.839a1 1 0 11-2 0v-8.84c-.761-.35-1.286-1.086-1.286-1.939 0-1.19 1.024-2.155 2.287-2.155 1.262 0 2.286.965 2.286 2.155 0 .853-.525 1.59-1.287 1.94z" fill="#000"/></svg>