<svg width="61" height="61" fill="none" xmlns="http://www.w3.org/2000/svg"><path fill-rule="evenodd" clip-rule="evenodd" d="M30.5 45.768c8.432 0 15.268-6.836 15.268-15.268S38.932 15.232 30.5 15.232 15.232 22.068 15.232 30.5 22.068 45.768 30.5 45.768zm0 2c9.537 0 17.268-7.731 17.268-17.268S40.037 13.232 30.5 13.232 13.232 20.963 13.232 30.5 20.963 47.768 30.5 47.768zm-6.122-18.054a1 1 0 011.415 0l3.62 3.62 8.208-8.21a1 1 0 111.415 1.415l-8.917 8.916a.996.996 0 01-1.414 0l-4.326-4.326a1 1 0 010-1.415z" fill="#A1273C"/><path fill-rule="evenodd" clip-rule="evenodd" d="M37.01 4.581L30.5.497 23.99 4.58l-7.664-.59-3.867 6.642L5.4 13.67l-.337 7.678-4.84 5.971 3.27 6.956-1.51 7.536 6.128 4.64 2.165 7.375 7.582 1.26L23.2 60.61l7.299-2.408 7.3 2.408 5.343-5.524 7.582-1.26 2.165-7.375 6.128-4.64-1.51-7.536 3.27-6.956-4.84-5.97-.337-7.68-7.06-3.037-3.867-6.643-7.663.591zm6.567 1.5l-7.07.545L30.5 2.858l-6.007 3.768-7.07-.545-3.567 6.128-6.514 2.803-.31 7.084-4.466 5.51 3.017 6.416-1.393 6.953 5.653 4.28 1.997 6.804 6.995 1.163 4.93 5.096 6.735-2.221 6.734 2.221 4.93-5.096 6.996-1.163 1.997-6.804 5.654-4.28-1.394-6.953 3.017-6.417-4.465-5.509-.311-7.084-6.514-2.803-3.567-6.128z" fill="#000"/></svg>