<svg width="59" height="61" fill="none" xmlns="http://www.w3.org/2000/svg"><path fill-rule="evenodd" clip-rule="evenodd" d="M11.063 14.758a1 1 0 000 2h36.495a1 1 0 100-2H11.063zm0 14a1 1 0 000 2H35.89a1 1 0 100-2H11.064zm-1 15a1 1 0 011-1h14.553a1 1 0 010 2H11.063a1 1 0 01-1-1zm46.492 4.209C56.555 54.06 51.615 59 45.522 59c-6.094 0-11.033-4.94-11.033-11.033 0-6.094 4.94-11.033 11.033-11.033 6.093 0 11.033 4.94 11.033 11.033zm2 0C58.555 55.165 52.72 61 45.522 61c-7.198 0-13.033-5.835-13.033-13.033 0-7.198 5.835-13.033 13.033-13.033 7.198 0 13.033 5.835 13.033 13.033zM37.912 47.8a1 1 0 011.414 0l3.064 3.063 9.327-9.328a1 1 0 011.415 1.414L43.104 52.977a.998.998 0 01-1.421.007l-3.77-3.77a1 1 0 010-1.414z" fill="#A1273C"/><path fill-rule="evenodd" clip-rule="evenodd" d="M5.33 2.425a3 3 0 00-3 3v50.15a3 3 0 003 3h23.98a1 1 0 110 2H5.33a5 5 0 01-5-5V5.425a5 5 0 015-5h47.961a5 5 0 015 5v27.88a1 1 0 01-2 0V5.425a3 3 0 00-3-3H5.33z" fill="#000"/></svg>