<svg viewBox="0 0 72 61" fill="none" xmlns="http://www.w3.org/2000/svg"><path fill-rule="evenodd" clip-rule="evenodd" d="M63.48 16.169c0 7.822-6.342 14.163-14.164 14.163-7.823 0-14.164-6.34-14.164-14.163S41.493 2.005 49.316 2.005c7.822 0 14.164 6.341 14.164 14.164zm2 0c0 8.927-7.237 16.163-16.164 16.163-8.927 0-16.164-7.236-16.164-16.163S40.39.005 49.316.005c8.927 0 16.164 7.237 16.164 16.164zm-47.644 38.31L9.433 34.96 2.7 37.858l8.403 19.52 6.733-2.9zm-7.357-22.147L.073 36.812l9.984 23.193 10.406-4.48-9.984-23.193zm2.661 20.902a.437.437 0 10.16-.858.437.437 0 00-.16.858zm-.368 1.966a2.437 2.437 0 10.897-4.79 2.437 2.437 0 00-.897 4.79z" fill="#a1273c"/><path fill-rule="evenodd" clip-rule="evenodd" d="M44.294 7.673v.008h-.046v2h.046v6.611H42.62v2h1.674v2.21H42.62v2h1.674v3.349h2v-3.349h4.9v-2h-4.9v-2.21h7.681c.801 0 1.59-.187 2.307-.545 3.645-1.822 3.837-6.952.339-9.042l-.427-.255a5.43 5.43 0 00-2.785-.769h-7.115v-.008h-2zm2 8.619v-6.61h7.115c.62 0 1.227.167 1.759.485l.427.255c2.142 1.28 2.024 4.42-.207 5.537a3.163 3.163 0 01-1.413.333h-7.681zm21.14 19.158a1.2 1.2 0 01.955.055l.246.124a.758.758 0 01.412.763 2.8 2.8 0 01-1.353 2.09l-8.776 5.212-3.116 1.33a46.226 46.226 0 01-18.76 3.711l-2.104-.027a20.111 20.111 0 01-3.711-.395 21.37 21.37 0 00-12.672 1.32l-.54.204.808 1.876.523-.244a19.37 19.37 0 0111.485-1.196c1.344.271 2.71.416 4.08.434l2.105.028a48.225 48.225 0 0019.571-3.871l3.238-1.383 8.89-5.279a4.802 4.802 0 002.32-3.583 2.758 2.758 0 00-1.5-2.776l-.246-.124a3.2 3.2 0 00-2.543-.147l-13.771 5.05a2.966 2.966 0 00-2.594-2.124l-7.084-.614a7.686 7.686 0 01-1.287-.223l-.7-.184a26.036 26.036 0 01-6.2-2.516l-2.98-1.684a11.605 11.605 0 00-2.856-1.146l-1.178-.299a14.195 14.195 0 00-5.56-.284 10.09 10.09 0 00-4.923 2.176l-2.833 2.32-2.802 1.77.8 1.856 3.175-2.001 2.927-2.397a8.092 8.092 0 013.948-1.745 12.196 12.196 0 014.776.244l1.178.299c.827.21 1.622.528 2.364.948l2.98 1.684a28.04 28.04 0 006.676 2.71l.7.184c.532.14 1.075.233 1.622.28l7.084.615a.968.968 0 01.84 1.253c-.402 1.278-1.118 2.025-2.134 2.477-1.075.48-2.548.654-4.472.592-1.91-.062-4.15-.35-6.708-.712l-1.242-.176c-2.214-.316-4.629-.66-7.19-.93a1 1 0 00-.21 1.99c2.522.264 4.895.603 7.109.919l1.253.178c2.549.36 4.89.664 6.924.73 2.022.065 3.859-.1 5.35-.764 1.411-.628 2.455-1.679 3.061-3.229l14.646-5.37z" fill="#000"/></svg>