<svg width="91" height="60" fill="none" xmlns="http://www.w3.org/2000/svg"><path fill-rule="evenodd" clip-rule="evenodd" d="M27.877 23.01l-.183.206c-3.94 4.433-10.962 4.11-14.48-.664a.283.283 0 00-.354-.085l-6.455 3.227A11.587 11.587 0 00.08 37.411a.58.58 0 00.42.491l.145.04a64.288 64.288 0 0017.207 2.346h2.064a.282.282 0 00.213-.096 21.155 21.155 0 018.212-5.77l5.966-2.335a.632.632 0 00.32-.898l-3.952-7.027a1 1 0 00-.5-.438l-1.974-.79a.29.29 0 00-.324.076zm35.129 0l.182.206c3.94 4.433 10.963 4.11 14.48-.664a.283.283 0 01.355-.085l6.454 3.227a11.587 11.587 0 016.326 11.717.58.58 0 01-.42.491l-.146.04a64.288 64.288 0 01-17.207 2.346h-2.064a.282.282 0 01-.212-.096 21.155 21.155 0 00-8.212-5.77l-5.966-2.335a.632.632 0 01-.32-.898l3.952-7.027a1 1 0 01.5-.438l1.974-.79a.29.29 0 01.324.076z" fill="#000"/><path fill-rule="evenodd" clip-rule="evenodd" d="M16.96 1.086l-1.318.815c-.39.242-.748.534-1.061.87l-.57.61a6.156 6.156 0 00-1.401 2.443 11.77 11.77 0 00-.487 3.703l.055 1.906a.062.062 0 01-.073.063 1.122 1.122 0 00-1.283 1.366l.96 4.028c.135.563.646.955 1.225.938.03 0 .056.02.064.049l.382 1.525a7.649 7.649 0 005.959 5.652l.716.14a4.868 4.868 0 001.643.037 7.633 7.633 0 006.297-5.74l.332-1.358a.056.056 0 01.052-.043 1.75 1.75 0 001.655-1.356l.855-3.716a1.093 1.093 0 00-1.313-1.31.017.017 0 01-.02-.02l.011-.044a8.79 8.79 0 00-.857-6.61l-.56-.985a5.234 5.234 0 00-.847-1.11 8.678 8.678 0 00-2.256-1.625L24.026.767a7.26 7.26 0 00-7.066.319zm49.438 0L65.08 1.9c-.39.242-.748.534-1.061.87l-.57.61a6.156 6.156 0 00-1.401 2.443 11.77 11.77 0 00-.487 3.703l.054 1.906a.062.062 0 01-.072.063 1.122 1.122 0 00-1.283 1.366l.96 4.028c.135.563.646.955 1.225.938.03 0 .056.02.064.049l.382 1.525a7.649 7.649 0 005.958 5.652l.716.14a4.868 4.868 0 001.644.037 7.633 7.633 0 006.297-5.74l.332-1.358a.056.056 0 01.052-.043 1.75 1.75 0 001.655-1.356l.855-3.716a1.093 1.093 0 00-1.313-1.31.017.017 0 01-.02-.02l.012-.044a8.79 8.79 0 00-.858-6.61l-.56-.985a5.235 5.235 0 00-.847-1.11 8.678 8.678 0 00-2.256-1.625L73.464.767a7.26 7.26 0 00-7.066.319zM39.478 4.97l-1.07.815-1.42 1.42a7.952 7.952 0 00-1.922 3.11 15.204 15.204 0 00-.78 4.808v2.47c0 .052-.047.09-.098.08a1.474 1.474 0 00-1.732 1.75l1.103 5.236a1.61 1.61 0 001.575 1.278c.04 0 .074.027.083.066l.427 1.922a10.07 10.07 0 007.645 7.646l.927.206a6.415 6.415 0 002.141.108 10.055 10.055 0 008.514-7.294l.467-1.685a.073.073 0 01.07-.053 2.304 2.304 0 002.23-1.718l1.252-4.76a1.435 1.435 0 00-1.67-1.773.022.022 0 01-.024-.028l.749-2.496c.406-1.354.559-2.772.45-4.181l-.006-.076a5.212 5.212 0 00-3.932-4.657.056.056 0 01-.032-.02C50.922 2.387 44.176 1.39 39.478 4.97zM36.91 36.406l4.106 14.148c.276.952 1.621.965 1.915.017l1.42-4.575a.264.264 0 00-.002-.165l-1.32-3.748a1.893 1.893 0 011.074-2.382 4.609 4.609 0 013.468 0 1.893 1.893 0 011.074 2.382l-1.319 3.748a.263.263 0 00-.003.165l1.42 4.575c.294.948 1.64.935 1.916-.017l4.098-14.118a1 1 0 011.388-.625l6.725 3.186a20.527 20.527 0 019.638 13.915l.322 1.762a57.654 57.654 0 01-18.72 5.072l-2.864.15a74.83 74.83 0 01-11.766-.307 61.518 61.518 0 01-14.156-3.212l-4.793-1.703-.246-3.96a17.859 17.859 0 011.152-7.506 3.72 3.72 0 011.969-2.07l12.139-5.368a1 1 0 011.365.636z" fill="#000"/></svg>