<svg width="47" height="41" fill="none" xmlns="http://www.w3.org/2000/svg"><path fill-rule="evenodd" clip-rule="evenodd" d="M10.093 15.29c5.191 0 9.4-1.472 9.4-3.287s-4.209-3.287-9.4-3.287c-5.19 0-9.399 1.472-9.399 3.287s4.208 3.287 9.4 3.287zm10.672 10.483c5.191 0 9.4-1.472 9.4-3.287s-4.209-3.287-9.4-3.287c-5.191 0-9.4 1.472-9.4 3.287s4.209 3.287 9.4 3.287zm-2.123-10.31c.317-.26.85-.226.85.184 0 .473-.245.925-.69 1.339 0 0-2.851.324-4.14.704-1.594.469-4.569 1.51-4.569 1.51-5.19 0-9.399-1.591-9.399-3.553 0-.41.534-.444.85-.183 1.485 1.223 4.754 2.073 8.55 2.073 3.794 0 7.064-.85 8.548-2.073zm11.522 10.774c0-.41-.534-.444-.85-.183-1.485 1.223-4.754 2.073-8.55 2.073-3.794 0-7.063-.85-8.548-2.073-.316-.261-.85-.227-.85.183 0 1.962 4.208 3.552 9.399 3.552 0 0 2.975-1.04 4.568-1.51 1.29-.38 4.14-.703 4.14-.703.446-.414.691-.866.691-1.34zm10.224 9.888c.17.267.259.545.259.83 0 1.963-4.208 3.553-9.4 3.553-5.19 0-9.399-1.59-9.399-3.552 0-.286.09-.565.259-.831.99 1.561 4.707 2.721 9.14 2.721 4.435 0 8.152-1.16 9.141-2.721zm-31.404-12.8c-5.19 0-8.29-1.333-8.29-3.295 0-.286.09-.564.258-.83.99 1.56 3.598 2.687 8.032 2.687v1.438zm-8.29.978c0 1.962 3.1 3.295 8.29 3.295V26.16c-4.434 0-7.042-1.127-8.032-2.688a1.54 1.54 0 00-.258.83zm8.29 7.678c-5.19 0-8.29-1.333-8.29-3.295 0-.286.09-.564.258-.83.99 1.56 3.598 2.687 8.032 2.687v1.438zm-8.29.978c0 1.962 3.1 3.295 8.29 3.295v-1.438c-4.434 0-7.042-1.127-8.032-2.688a1.54 1.54 0 00-.258.831zm18.962 5.358c-5.191 0-8.29-1.333-8.29-3.295 0-.286.09-.564.258-.831.99 1.561 3.598 2.688 8.032 2.688v1.438zm-8.29-7.568c0 1.962 3.099 3.295 8.29 3.295v-1.438c-4.434 0-7.042-1.127-8.032-2.688a1.54 1.54 0 00-.258.831zm19.882 5.742c5.19 0 9.399-1.471 9.399-3.286s-4.208-3.287-9.4-3.287c-5.19 0-9.399 1.472-9.399 3.287s4.209 3.286 9.4 3.286z" fill="#A1273C"/><path fill-rule="evenodd" clip-rule="evenodd" d="M39.305 15.055a1.5 1.5 0 00-1.41-.755l-8.455.604a2.5 2.5 0 01-2.366-1.284L20.105 1.005a.5.5 0 01.876-.484l6.968 12.615a1.5 1.5 0 001.42.77l8.454-.603a2.5 2.5 0 012.352 1.258l5.502 9.681-.262-3.537a.5.5 0 11.997-.074l.402 5.411a.5.5 0 01-.37.52.5.5 0 01-.618-.072l-4.694-2.618a.5.5 0 01.488-.873l3.223 1.798-5.538-9.742z" fill="#000"/></svg>