<svg width="67" height="60" fill="none" xmlns="http://www.w3.org/2000/svg"><path fill-rule="evenodd" clip-rule="evenodd" d="M18.817 3.08l-1.074.819-1.426 1.426a7.986 7.986 0 00-1.93 3.121 15.266 15.266 0 00-.783 4.828v2.48a.082.082 0 01-.098.081 1.48 1.48 0 00-1.739 1.756l1.107 5.258a1.616 1.616 0 001.582 1.283c.04 0 .074.028.083.067l.428 1.93a10.11 10.11 0 007.677 7.676l.93.207a6.44 6.44 0 002.15.109 10.096 10.096 0 008.548-7.325l.47-1.69a.074.074 0 01.07-.054c1.052 0 1.97-.709 2.238-1.725l1.258-4.78a1.44 1.44 0 00-1.676-1.78.022.022 0 01-.025-.027l.752-2.507a11.53 11.53 0 00.452-4.198l-.006-.076a5.233 5.233 0 00-3.948-4.676.056.056 0 01-.032-.021C30.307.488 23.535-.514 18.817 3.08zm1.673 45.254l-3.813-13.863a1 1 0 00-1.387-.641L4.005 39.096a3.828 3.828 0 00-1.979 2.16 18.375 18.375 0 00-1.075 7.36l.237 4.026 4.582 1.719a55.287 55.287 0 0013.306 3.181l1.623.18c2.623.292 5.266.365 7.901.219a45.507 45.507 0 008.513-1.289l2.909-.727a.201.201 0 00.127-.293 17.55 17.55 0 01.463-17.683 1.01 1.01 0 00-.405-1.435l-5.28-2.64a1 1 0 00-1.412.628L29.71 48.334c-.267.97-1.64.983-1.924.017l-1.283-4.364a.27.27 0 01.003-.162l1.293-3.881a1.783 1.783 0 00-.99-2.203 4.342 4.342 0 00-3.42 0 1.783 1.783 0 00-.99 2.203l1.294 3.88a.27.27 0 01.003.163l-1.284 4.364c-.284.966-1.656.954-1.923-.017z" fill="#000"/><path fill-rule="evenodd" clip-rule="evenodd" d="M64.946 47.124C64.946 53.131 60.077 58 54.071 58c-6.007 0-10.876-4.87-10.876-10.876 0-6.006 4.87-10.875 10.876-10.875 6.006 0 10.875 4.869 10.875 10.875zm2 0C66.946 54.235 61.182 60 54.071 60s-12.876-5.765-12.876-12.876c0-7.11 5.765-12.875 12.876-12.875 7.11 0 12.875 5.764 12.875 12.875zm-11.875-7.817a1 1 0 10-2 0v7.863a2 2 0 00.586 1.414l4.305 4.306a1 1 0 101.414-1.415l-4.305-4.305v-7.863z" fill="#A1273C"/></svg>