<svg width="64" height="60" fill="none" xmlns="http://www.w3.org/2000/svg"><path fill-rule="evenodd" clip-rule="evenodd" d="M23.446.668a4 4 0 00-4 4v8.101a1 1 0 102 0v-8.1a2 2 0 012-2h32.147a2 2 0 012 2v24.32a1 1 0 102 0V4.67a4 4 0 00-4-4H23.447zm-6.23 14.738a5 5 0 00-5 5v5.317a1 1 0 002 0v-5.317a3 3 0 013-3h11.418a3 3 0 013 3v12.026a1 1 0 002 0V20.406a5 5 0 00-5-5H17.216zm-5.203 14.282H3.781a1 1 0 00-1 1v17.44a1 1 0 001 1h8.232a1 1 0 001-1v-17.44a1 1 0 00-1-1zm-8.232-2a3 3 0 00-3 3v17.44a3 3 0 003 3h8.232a3 3 0 003-3v-17.44a3 3 0 00-3-3H3.781zm4.325 19.72a.21.21 0 11-.418 0 .21.21 0 01.418 0zm1 0a1.21 1.21 0 11-2.418 0 1.21 1.21 0 012.418 0zm14.057-5.326v.004l.002.002.002.001.004.002.004-.002h.002v-.003l.002-.002v-.002l-.001-.004-.001-.002h-.002a.025.025 0 00-.004-.002h-.002l-.002.001-.002.001-.001.002v.002l-.002.002zm.008 1.992a1.991 1.991 0 100-3.983 1.991 1.991 0 000 3.983zm-6.343 1.334a1 1 0 100 2H30.81a1 1 0 100-2H16.828z" fill="#000"/><path fill-rule="evenodd" clip-rule="evenodd" d="M48.798 30.172h-2.126v.585h2.126v-.585zm-2.126-2a2 2 0 00-2 2v.585c0 .132.013.261.037.386a12.723 12.723 0 00-3.205 1.282 2.002 2.002 0 00-.332-.44l-.414-.414a2 2 0 00-2.829 0l-1.503 1.503a2 2 0 000 2.829l.414.414a1.9 1.9 0 00.269.225 12.738 12.738 0 00-1.689 3.801 2.008 2.008 0 00-.496-.062h-.585a2 2 0 00-2 2v2.127a2 2 0 002 2h.585c.135 0 .267-.014.395-.04a12.719 12.719 0 001.331 3.47 1.999 1.999 0 00-.509.37l-.414.414a2 2 0 000 2.828l1.504 1.504a2 2 0 002.828 0l.414-.414c.097-.097.181-.2.254-.31a12.732 12.732 0 004.145 1.798 1.997 1.997 0 00-.122.689v.585a2 2 0 002 2h2.126a2 2 0 002-2v-.585c0-.242-.043-.474-.121-.689a12.727 12.727 0 003.806-1.58c.083.14.185.271.306.392l.413.414a2 2 0 002.829 0l1.503-1.504a2 2 0 000-2.828l-.414-.414a2.003 2.003 0 00-.424-.324 12.725 12.725 0 001.533-3.816c.128.026.26.04.395.04h.586a2 2 0 002-2V42.28a2 2 0 00-2-2h-.585a1.98 1.98 0 00-.497.063 12.739 12.739 0 00-1.788-3.951c.131-.08.255-.178.369-.291l.413-.414a2 2 0 000-2.829l-1.503-1.503a2 2 0 00-2.828 0l-.414.414c-.18.18-.32.387-.417.607a12.715 12.715 0 00-3.27-1.27c.02-.113.03-.23.03-.35v-.585a2 2 0 00-2-2h-2.126zm11.943 15.394c0 5.966-4.836 10.802-10.802 10.802-5.966 0-10.802-4.836-10.802-10.802 0-5.965 4.836-10.801 10.802-10.801 5.966 0 10.802 4.836 10.802 10.801zm-8.601-.359a2.2 2.2 0 11-4.401 0 2.2 2.2 0 014.4 0zm2 0a4.2 4.2 0 11-8.401 0 4.2 4.2 0 018.4 0zm-17.675 1.2v-2.126h.585v2.127h-.585zm26.364-2.126v2.127h.585V42.28h-.585zm-4.42-9.511l1.503 1.503-.414.414-1.503-1.503.414-.414zm-16.94.215l-1.503 1.504.414.413 1.503-1.503-.414-.414zm16.938 20.44l1.503-1.503.414.414-1.503 1.504-.414-.414zm-17.222-.3l-1.504-1.503-.413.414 1.503 1.503.414-.413zm7.691 3.592h2.126v.585H46.75v-.585z" fill="#A1273C"/></svg>