<svg width="64" height="54" fill="none" xmlns="http://www.w3.org/2000/svg"><path fill-rule="evenodd" clip-rule="evenodd" d="M21.92 2.879L4.456 6.11a2 2 0 00-1.603 2.33l7.662 41.395a2 2 0 002.333 1.603l12.932-2.414a2 2 0 001.533-1.343l2.652-8.087a2 2 0 00-.698-2.221l-5.66-4.261a4 4 0 01-1.385-4.47l3.354-9.986a2 2 0 00-.834-2.331l-4.56-2.857a4 4 0 01-1.318-5.427L21.92 2.88zM4.092 4.144A4 4 0 00.887 8.805L8.548 50.2a4 4 0 004.667 3.205l12.932-2.414a4 4 0 003.067-2.686l2.651-8.087a4 4 0 00-1.395-4.442l-5.66-4.26a2 2 0 01-.692-2.235l3.354-9.987a4 4 0 00-1.669-4.663l-4.559-2.857a2 2 0 01-.66-2.713l3.057-5.164C24.515 2.42 23.244.6 21.556.912L4.092 4.144zm14.665 11.883a1 1 0 01-.814 1.156L9.79 18.598a1 1 0 11-.342-1.97l8.152-1.415a1 1 0 011.156.814zm.684 7.9a1 1 0 10-.342-1.971l-8.152 1.415a1 1 0 10.342 1.97l8.152-1.415zm3.396 14.684a1 1 0 01-.814 1.157l-8.152 1.414a1 1 0 11-.342-1.97l8.152-1.415a1 1 0 011.156.814zm-4.746-6.827a1 1 0 10-.388-1.962l-5.729 1.133a1 1 0 10.388 1.962l5.729-1.133z" fill="#000"/><path fill-rule="evenodd" clip-rule="evenodd" d="M33.621 48.502l17.448 3.32a2 2 0 002.338-1.59l7.87-41.357a2 2 0 00-1.594-2.339l-13.41-2.53a2 2 0 00-1.646.424l-5.035 4.165a2 2 0 00-.074 3.019l3.646 3.326a4 4 0 01.186 5.728l-7.476 7.773a2 2 0 00-.368 2.24l4.264 9.045a4 4 0 01-1.148 4.853l-5 3.923zm17.074 5.285a4 4 0 004.677-3.182l7.87-41.356a4 4 0 00-3.188-4.678l-13.41-2.53a4 4 0 00-3.291.848l-5.036 4.165a4 4 0 00-.147 6.037l3.646 3.327a2 2 0 01.093 2.864l-7.477 7.772a4 4 0 00-.735 4.479l4.264 9.046a2 2 0 01-.574 2.426l-5 3.924c-1.351 1.06-.826 3.217.86 3.538l17.448 3.32zm5.518-37.136a1 1 0 01-1.188.767l-8.088-1.74a1 1 0 11.42-1.955l8.089 1.74a1 1 0 01.767 1.188zm-4.68 15.215a1 1 0 00.378-1.964l-8.03-1.55a1 1 0 00-.38 1.964l8.031 1.55zm-.12 6.556a1 1 0 01-1.189.767l-8.089-1.74a1 1 0 11.42-1.955l8.09 1.74a1 1 0 01.767 1.188zm2.116-14.22a1 1 0 00.383-1.964l-7.87-1.536a1 1 0 10-.383 1.963l7.87 1.536z" fill="#A1273C"/></svg>