<svg width="50" height="60" fill="none" xmlns="http://www.w3.org/2000/svg"><path d="M1.706 9.046A42.546 42.546 0 0025.063.186l.231.166a44.305 44.305 0 0024.258 8.362s.505 13.678 0 19.622c-.68 7.992-2.726 15.801-7.678 21.242l-1.48-1.347c4.511-4.955 6.5-12.23 7.165-20.065.243-2.857.246-7.666.183-11.84-.032-2.07-.079-3.956-.118-5.324l-.012-.398a46.305 46.305 0 01-22.514-7.945A44.547 44.547 0 012.23 11.015c-.02 3.704-.012 11.896.514 17.12l-1.99.2C.134 22.177.22 12.037.24 9.62l.004-.48 1.463-.094z" fill="#000"/><path d="M28.399 46.208a61.79 61.79 0 01.847-.109c.227-.237.35-.461.396-.668l-1.243.777zm0 0a6.169 6.169 0 001.233-.768l-1.233.768zM18.96 34.85h0a.166.166 0 01.01-.008c-.046.206-.169.43-.396.667a50.718 50.718 0 00-.847.109 6.17 6.17 0 001.233-.769zm-8.867 2.187a25 25 0 002.116-.088 162.633 162.633 0 00-2.149.732l-.051.018c-2.517-.008-4.772-.398-6.385-1.008-.818-.309-1.445-.665-1.858-1.034-.327-.292-.494-.566-.55-.815a.218.218 0 01.01.007h0c.825.68 2.096 1.222 3.606 1.596 1.522.376 3.328.592 5.261.592zm10.639 11.234l-.051.018c-2.518-.008-4.772-.398-6.386-1.008-.817-.309-1.444-.665-1.858-1.034-.326-.292-.493-.566-.55-.816a.29.29 0 01.011.009c.825.68 2.095 1.221 3.606 1.595 1.521.376 3.328.592 5.26.592.727 0 1.435-.03 2.117-.088a185.247 185.247 0 00-2.15.732zm-1.74-17.268c0 .245-.14.55-.557.894-.413.342-1.04.671-1.86.958-1.636.572-3.927.935-6.482.935-2.554 0-4.846-.363-6.481-.935-.82-.287-1.448-.616-1.86-.958-.417-.344-.558-.649-.558-.894s.14-.55.557-.894c.413-.341 1.041-.671 1.861-.958 1.635-.572 3.927-.934 6.481-.934 2.555 0 4.846.362 6.482.934.82.287 1.447.617 1.86.958.417.344.558.649.558.894zm10.672 10.483c0 .245-.14.55-.557.894-.413.341-1.04.671-1.86.958-1.636.572-3.927.934-6.482.934s-4.846-.362-6.481-.934c-.82-.287-1.448-.617-1.861-.958-.416-.344-.557-.649-.557-.894s.14-.55.557-.894c.413-.342 1.04-.671 1.86-.958 1.636-.572 3.927-.935 6.482-.935s4.846.363 6.481.935c.82.287 1.448.616 1.861.958.416.344.557.649.557.894zm7.59 16.064c1.162-.351 2.171-.82 2.871-1.4-.056.249-.223.524-.55.816-.414.37-1.04.725-1.858 1.034-1.631.617-3.918 1.008-6.47 1.008-2.55 0-4.838-.391-6.469-1.008-.817-.309-1.444-.664-1.858-1.034-.327-.292-.494-.567-.55-.816.7.58 1.71 1.049 2.871 1.4 1.662.502 3.75.797 6.007.797 2.257 0 4.344-.295 6.006-.797zM8.484 41.82c-2.323-.04-4.151-.361-5.403-.87-1.19-.483-1.74-1.077-1.861-1.664.575.531 1.342.974 2.288 1.313 1.295.464 2.95.744 4.976.783v.439zm-4.976 3.052c1.295.464 2.95.743 4.976.783v.438c-2.323-.04-4.151-.362-5.403-.87-1.19-.484-1.74-1.078-1.861-1.665.575.532 1.342.975 2.288 1.314zm4.976 5.605c-2.323-.04-4.151-.362-5.403-.87-1.19-.484-1.74-1.078-1.861-1.665.575.531 1.342.974 2.288 1.313 1.295.464 2.95.744 4.976.783v.439zm0 3.834v.438c-2.323-.04-4.151-.361-5.403-.87-1.19-.484-1.74-1.077-1.861-1.664.575.53 1.342.974 2.288 1.313 1.295.464 2.95.744 4.976.783zm10.672 2.501c-2.324-.04-4.152-.361-5.404-.87-1.19-.484-1.74-1.077-1.86-1.665.574.532 1.342.975 2.288 1.314 1.294.464 2.95.744 4.976.783v.438zm-4.976-5.494c1.294.464 2.95.744 4.976.783v.439c-2.324-.04-4.152-.362-5.404-.87-1.19-.485-1.74-1.078-1.86-1.665.574.53 1.342.974 2.288 1.313zm25.967.887c0 .245-.141.55-.557.894-.413.341-1.041.671-1.861.958-1.635.572-3.927.934-6.481.934-2.555 0-4.847-.362-6.482-.934-.82-.287-1.447-.617-1.86-.958-.417-.344-.558-.65-.558-.894 0-.245.141-.55.558-.894.413-.342 1.04-.672 1.86-.958 1.636-.572 3.927-.935 6.482-.935 2.554 0 4.846.363 6.48.935.82.286 1.449.616 1.862.958.416.344.557.649.557.894z" fill="#A1273C" stroke="#000"/><path fill-rule="evenodd" clip-rule="evenodd" d="M25.694 35.085a.832.832 0 01-.444-.221l-9.548-9.141a.834.834 0 111.154-1.205l8.887 8.507L37.47 17.378a.834.834 0 011.336 1L26.523 34.767a.834.834 0 01-.829.319z" fill="#000"/></svg>