<svg viewBox="0 0 72 60" fill="none" xmlns="http://www.w3.org/2000/svg"><path fill-rule="evenodd" clip-rule="evenodd" d="M27.04.18a1.344 1.344 0 10-1.346 2.328l19.78 11.432a1.344 1.344 0 101.345-2.326L27.038.18zm-.518 8.568l13.067 7.544L28.563 35.39l-13.067-7.544L26.522 8.748zm-.984-3.671L43.26 15.309l-6.015 10.418L70.468 46.73a1.344 1.344 0 01-1.436 2.272L35.9 28.056l-6.354 11.006L11.824 28.83 25.538 5.077zM7.782 30.817a1.344 1.344 0 011.836-.491l19.78 11.431a1.344 1.344 0 01-1.345 2.327L8.273 32.653a1.344 1.344 0 01-.49-1.836z" fill="#a1273c"/><path fill-rule="evenodd" clip-rule="evenodd" d="M7.033 54.625a2.688 2.688 0 00-2.687 2.687H0V60h39.175v-2.688h-4.346a2.688 2.688 0 00-2.688-2.687H7.033z" fill="#000"/></svg>