<svg viewBox="0 0 56 60" fill="none" xmlns="http://www.w3.org/2000/svg"><path fill-rule="evenodd" clip-rule="evenodd" d="M15.694 21.056l12.248-2.34 12.126 2.066-11.994 1.409-12.38-1.135zm-5.273-.483l17.506-3.345 17.264 2.941-.014.08 3.123 9.278-2.175.314v10.073L28.194 42.52a.73.73 0 01-.358-.037L10.07 39.75v-9.77l-2.839-.503 3.158-8.907.033.003zm35.931 7.756l-2.205-6.552-14.853 1.745 1.49 7.056 15.568-2.25zm-1.691 10.318l-15.918 2.314V28.004l.891 4.22 15.027-2.171v8.594zM11.388 22.132l-2.2 6.205 15.593 2.76 1.668-7.584-15.06-1.38zm.145 16.362v-8.255l14.377 2.545 1.37-6.228v14.36l-15.747-2.422z" fill="#a1273c"/><path fill-rule="evenodd" clip-rule="evenodd" d="M42.014.447a.732.732 0 00-1.349.57l2.407 5.687a44.935 44.935 0 00-2.817-1.486C16.71-6.172-8.216 18.304 2.603 42.103c.478 1.051.95 2.022 1.396 2.898a.732.732 0 001.305-.665c-.438-.858-.9-1.81-1.368-2.84-10.257-22.561 13.38-45.748 35.681-34.96a42.923 42.923 0 012.917 1.549l-6.86.98a.732.732 0 00.208 1.45l8.858-1.266a.732.732 0 00.571-1.01L42.014.447zm-27.943 59.11a.732.732 0 101.345-.58l-2.443-5.67a44.539 44.539 0 002.826 1.468c23.62 11.235 48.385-13.403 37.41-37.13a72.02 72.02 0 00-1.415-2.89.732.732 0 00-1.3.673 70.47 70.47 0 011.386 2.831c10.404 22.494-13.081 45.835-35.452 35.194a42.95 42.95 0 01-2.927-1.53l6.853-1.025a.732.732 0 00-.216-1.448l-8.85 1.323a.732.732 0 00-.565 1.014l3.348 7.77z" fill="#000"/></svg>